<?xml version="1.0" encoding="UTF-8"?>
<svg xmlns="http://www.w3.org/2000/svg" width="1280" height="720" viewBox="0 0 1280 720" data-pptx-page-role="content">
  <g id="bg" data-pptx-bounds="0 0 1280 720" data-pptx-role="background">
    <rect width="1280" height="720" fill="#FFFFFF"/>
  </g>
  <g id="header" data-pptx-bounds="48 20 1184 50">
    <rect x="48" y="24" width="8" height="36" rx="4" fill="#000000"/>
    <text x="72" y="50" font-family="Arial, sans-serif" font-size="30" font-weight="700" fill="#000000">Activity — Buy Now (Mua ngay)</text>
    <text x="72" y="72" font-family="Arial, sans-serif" font-size="17" fill="#333333">Luồng chính 5/5 · Cart → Invoice → Thanh toán trong 7 ngày</text>
  </g>
<rect x="60" y="90" width="380" height="560" fill="#FFFFFF" stroke="#000000" stroke-width="1"/>
<rect x="60" y="90" width="380" height="36" fill="#000000"/>
<text x="250.0" y="114" text-anchor="middle" font-family="Arial, sans-serif" font-size="17" font-weight="700" fill="#FFFFFF">Buyer</text>
<rect x="440" y="90" width="380" height="560" fill="#FFFFFF" stroke="#000000" stroke-width="1"/>
<rect x="440" y="90" width="380" height="36" fill="#000000"/>
<text x="630.0" y="114" text-anchor="middle" font-family="Arial, sans-serif" font-size="17" font-weight="700" fill="#FFFFFF">System</text>
<rect x="820" y="90" width="380" height="560" fill="#FFFFFF" stroke="#000000" stroke-width="1"/>
<rect x="820" y="90" width="380" height="36" fill="#000000"/>
<text x="1010.0" y="114" text-anchor="middle" font-family="Arial, sans-serif" font-size="17" font-weight="700" fill="#FFFFFF">Payment</text>
<circle cx="250" cy="150" r="10" fill="#000000"/>
  <line x1="250" y1="160" x2="250" y2="177" stroke="#000000" stroke-width="1.5"/>
  <polygon points="246,177 250,185 254,177" fill="#000000"/>
  <rect x="150" y="185" width="200" height="40" rx="20" fill="#FFFFFF" stroke="#000000" stroke-width="1.5"/>
  <text x="250.0" y="210.0" text-anchor="middle" font-family="Arial, sans-serif" font-size="16" font-weight="600" fill="#000000">Xem Buy Now</text>
  <line x1="250" y1="225" x2="250" y2="247" stroke="#000000" stroke-width="1.5"/>
  <polygon points="246,247 250,255 254,247" fill="#000000"/>
  <rect x="150" y="255" width="200" height="40" rx="20" fill="#FFFFFF" stroke="#000000" stroke-width="1.5"/>
  <text x="250.0" y="280.0" text-anchor="middle" font-family="Arial, sans-serif" font-size="16" font-weight="600" fill="#000000">Add to Cart</text>
  <line x1="350" y1="275" x2="492" y2="275" stroke="#000000" stroke-width="1.5"/>
  <polygon points="492,271 500,275 492,279" fill="#000000"/>
  <rect x="500" y="255" width="220" height="40" rx="20" fill="#FFFFFF" stroke="#000000" stroke-width="1.5"/>
  <text x="610.0" y="280.0" text-anchor="middle" font-family="Arial, sans-serif" font-size="16" font-weight="600" fill="#000000">Tạo invoice buy_now</text>
  <line x1="610" y1="295" x2="610" y2="332" stroke="#000000" stroke-width="1.5"/>
  <polygon points="606,332 610,340 614,332" fill="#000000"/>
  <rect x="500" y="340" width="220" height="42" rx="21" fill="#FFFFFF" stroke="#000000" stroke-width="1.5"/>
  <text x="610.0" y="366.0" text-anchor="middle" font-family="Arial, sans-serif" font-size="16" font-weight="600" fill="#000000">Deadline 7 ngày</text>
  <line x1="610" y1="382" x2="610" y2="412" stroke="#000000" stroke-width="1.5"/>
  <polygon points="606,412 610,420 614,412" fill="#000000"/>
  <polygon points="610,428 642,460 610,492 578,460" fill="#FFFFFF" stroke="#000000" stroke-width="1.5"/>
  <text x="610" y="464" text-anchor="middle" font-family="Arial, sans-serif" font-size="14" fill="#000000">Pay?</text>
  <line x1="642" y1="460" x2="872" y2="460" stroke="#000000" stroke-width="1.5"/>
  <polygon points="872,456 880,460 872,464" fill="#000000"/>
  <text x="700" y="450" font-family="Arial, sans-serif" font-size="14" fill="#000000">Thanh toán</text>
  <rect x="880" y="440" width="260" height="40" rx="20" fill="#FFFFFF" stroke="#000000" stroke-width="1.5"/>
  <text x="1010.0" y="465.0" text-anchor="middle" font-family="Arial, sans-serif" font-size="16" font-weight="600" fill="#000000">PayPal / COD</text>
  <line x1="1010" y1="480" x2="1010" y2="532" stroke="#000000" stroke-width="1.5"/>
  <polygon points="1006,532 1010,540 1014,532" fill="#000000"/>
  <rect x="880" y="540" width="260" height="40" rx="20" fill="#FFFFFF" stroke="#000000" stroke-width="1.5"/>
  <text x="1010.0" y="565.0" text-anchor="middle" font-family="Arial, sans-serif" font-size="16" font-weight="600" fill="#000000">Order completed</text>
  <line x1="1010" y1="580" x2="1010" y2="622" stroke="#000000" stroke-width="1.5"/>
  <polygon points="1006,622 1010,630 1014,622" fill="#000000"/>
  <circle cx="1010" cy="655" r="12" fill="none" stroke="#000000" stroke-width="3"/>
  <circle cx="1010" cy="655" r="6" fill="#000000"/>
  <path d="M578 460 L300 460 L300 380" fill="none" stroke="#000000" stroke-width="1.5"/>
  <polygon points="296,382 300,372 304,382" fill="#000000"/>
  <text x="340" y="450" font-family="Arial, sans-serif" font-size="14" fill="#000000">Hủy / hết hạn</text>
  <rect x="150" y="350" width="200" height="40" rx="20" fill="#FFFFFF" stroke="#000000" stroke-width="1.5"/>
  <text x="250.0" y="375.0" text-anchor="middle" font-family="Arial, sans-serif" font-size="16" font-weight="600" fill="#000000">Hủy invoice</text>
  <line x1="250" y1="390" x2="250" y2="442" stroke="#000000" stroke-width="1.5"/>
  <polygon points="246,442 250,450 254,442" fill="#000000"/>
  <circle cx="250" cy="470" r="12" fill="none" stroke="#000000" stroke-width="3"/>
  <circle cx="250" cy="470" r="6" fill="#000000"/>
  <g id="footer" data-pptx-bounds="48 680 1184 28" data-pptx-role="footer">
    <text x="48" y="700" font-family="Arial, sans-serif" font-size="16" fill="#333333">Nhóm 3 · CardMarket</text>
    <text x="1232" y="700" text-anchor="end" font-family="Arial, sans-serif" font-size="16" fill="#333333">17 / 20</text>
  </g>
</svg>